<svg width="64" height="64" viewBox="0 0 64 64" xmlns="http://www.w3.org/2000/svg">
  <defs><linearGradient id="g" x1="8" y1="6" x2="58" y2="60"><stop stop-color="#7C5CFF"/><stop offset="1" stop-color="#11B7A3"/></linearGradient></defs>
  <rect x="3" y="3" width="58" height="58" rx="18" fill="url(#g)"/>
  <path d="M19 26v-4a3 3 0 0 1 3-3h4M38 19h4a3 3 0 0 1 3 3v4M45 38v4a3 3 0 0 1-3 3h-4M26 45h-4a3 3 0 0 1-3-3v-4" fill="none" stroke="#fff" stroke-width="3" stroke-linecap="round"/>
  <circle cx="32" cy="29" r="5.5" fill="none" stroke="#fff" stroke-width="2.5"/>
  <path d="M24 42c1.4-4.5 4.1-6.7 8-6.7s6.6 2.2 8 6.7" fill="none" stroke="#fff" stroke-width="2.5" stroke-linecap="round"/>
</svg>
