<svg width="96" height="96" viewBox="0 0 96 96" fill="none" xmlns="http://www.w3.org/2000/svg">
  <defs>
    <linearGradient id="bg" x1="13" y1="9" x2="84" y2="88" gradientUnits="userSpaceOnUse">
      <stop stop-color="#7C5CFF"/>
      <stop offset="0.48" stop-color="#5B4BE7"/>
      <stop offset="1" stop-color="#11B7A3"/>
    </linearGradient>
    <linearGradient id="line" x1="30" y1="28" x2="68" y2="69" gradientUnits="userSpaceOnUse">
      <stop stop-color="white"/>
      <stop offset="1" stop-color="#D8FFF8"/>
    </linearGradient>
    <filter id="shadow" x="-18" y="-18" width="132" height="132" filterUnits="userSpaceOnUse">
      <feDropShadow dx="0" dy="8" stdDeviation="8" flood-color="#221A72" flood-opacity="0.35"/>
    </filter>
  </defs>
  <g filter="url(#shadow)">
    <rect x="8" y="8" width="80" height="80" rx="25" fill="url(#bg)"/>
    <rect x="9" y="9" width="78" height="78" rx="24" stroke="white" stroke-opacity="0.18" stroke-width="2"/>
  </g>
  <path d="M30 38V32C30 29.7909 31.7909 28 34 28H40M56 28H62C64.2091 28 66 29.7909 66 32V38M66 56V62C66 64.2091 64.2091 66 62 66H56M40 66H34C31.7909 66 30 64.2091 30 62V56" stroke="url(#line)" stroke-width="4" stroke-linecap="round"/>
  <circle cx="48" cy="43" r="8" stroke="url(#line)" stroke-width="3.5"/>
  <path d="M36.5 61C38.232 54.865 42.227 52 48 52C53.773 52 57.768 54.865 59.5 61" stroke="url(#line)" stroke-width="3.5" stroke-linecap="round"/>
  <circle cx="72" cy="24" r="6" fill="#89FFE6"/>
  <circle cx="72" cy="24" r="10" stroke="#89FFE6" stroke-opacity="0.3" stroke-width="2"/>
</svg>
